<svg width="22" height="22" viewBox="0 0 22 22" fill="none" xmlns="http://www.w3.org/2000/svg">
<path d="M3.88041 1.35683C4.33606 1.26774 4.80846 1.30737 5.2429 1.47113L19.2768 6.76566L19.2759 6.76593C21.5226 7.61283 21.3977 10.8353 19.0922 11.5058L13.4068 13.1592C13.3334 13.1806 13.2659 13.219 13.2094 13.2706C13.1529 13.3222 13.1086 13.3862 13.0807 13.4575L13.0795 13.4568L10.8769 19.1195L10.8757 19.1188C10.0094 21.3453 6.81375 21.2031 6.14667 18.9096L1.96054 4.50859L1.91762 4.34004C1.83196 3.94479 1.84313 3.53363 1.95168 3.14225C2.07578 2.69493 2.32218 2.29064 2.6629 1.97534C3.0035 1.66026 3.42506 1.44595 3.88041 1.35683Z" fill="white" stroke="#1E1E1E" stroke-width="2"/>
</svg>
