<svg width="49" height="45" viewBox="0 0 49 45" fill="none" xmlns="http://www.w3.org/2000/svg">
<path d="M48.3 22.2464C48.3 10.2464 37.7 0.546387 24.7 0.546387C11.6 0.546387 1.10004 10.2464 1.10004 22.2464C1.10004 34.2464 11.6 43.9464 24.7 43.9464C37.7 43.9464 48.3 34.2464 48.3 22.2464Z" stroke="#100F10" stroke-miterlimit="10"/>
<path d="M34.9 22.2464C34.9 10.2464 30.3 0.546387 24.7 0.546387C19.1 0.546387 14.5001 10.2464 14.5001 22.2464C14.5001 34.2464 19.1 43.9464 24.7 43.9464C30.3 43.9464 34.9 34.2464 34.9 22.2464Z" stroke="#100F10" stroke-miterlimit="10"/>
<path d="M2.70001 14.2466H46.6" stroke="#100F10" stroke-miterlimit="10"/>
<path d="M2.70001 30.2466H46.6" stroke="#100F10" stroke-miterlimit="10"/>
</svg>
