<svg width="64" height="25" viewBox="0 0 64 25" fill="none" xmlns="http://www.w3.org/2000/svg">
<g clip-path="url(#clip0_2341_191)">
<path d="M42.8365 7.83526H39.5303V20.4768H42.8365V7.83526Z" fill="black"/>
<path d="M34.6516 12.8875C35.377 12.1451 36.0696 11.354 36.7281 10.5169C37.3879 9.67968 37.9979 8.78539 38.558 7.83642H35.1777C34.5192 8.8024 33.7901 9.6894 32.9918 10.4986C32.1935 11.3079 31.3369 12.0381 30.4232 12.6906V4.27141L27.1182 4.56181V20.4768H30.4244V15.9446C30.7208 15.7708 31.0076 15.5922 31.2834 15.4063C31.5592 15.2204 31.829 15.0284 32.0927 14.8304C32.6516 15.755 33.1801 16.6809 33.6783 17.6104C34.1765 18.5388 34.6637 19.495 35.1413 20.4768H38.7938C38.0854 19.0649 37.3928 17.7283 36.7172 16.4646C36.0416 15.2022 35.3527 14.009 34.6528 12.8863L34.6516 12.8875Z" fill="black"/>
<path d="M39.5303 7.08793H42.8365V4.23131L39.5303 4.5533V7.08793Z" fill="black"/>
<path d="M63.1159 16.563C62.5558 16.9591 61.9725 17.2605 61.3662 17.467C60.7599 17.6736 60.1025 17.7769 59.3942 17.7769C58.8413 17.7769 58.3492 17.7052 57.9166 17.5606C57.4841 17.416 57.1147 17.2119 56.8097 16.9482C56.5047 16.6845 56.2593 16.3601 56.0746 15.9761C55.8887 15.5922 55.772 15.1572 55.7222 14.6699V14.6456H63.523C63.5558 14.4306 63.5789 14.2179 63.591 14.0077C63.6032 13.7975 63.6092 13.5727 63.6092 13.3334C63.6092 12.3759 63.4853 11.5253 63.2374 10.7829C62.9896 10.0405 62.6372 9.41112 62.1791 8.89472C61.721 8.37831 61.1657 7.98706 60.5132 7.71853C59.8607 7.45 59.1341 7.31634 58.3346 7.31634C57.4598 7.31634 56.6566 7.47308 55.9264 7.78657C55.1961 8.10006 54.5703 8.54964 54.0503 9.13651C53.5302 9.72218 53.128 10.4245 52.8437 11.241C52.5594 12.0575 52.416 12.9786 52.416 14.0017C52.416 15.0247 52.5667 15.9142 52.868 16.7198C53.1694 17.5241 53.6031 18.2058 54.1681 18.7623C54.7332 19.32 55.4209 19.7453 56.2301 20.0381C57.0394 20.3309 57.9555 20.478 58.9786 20.478C59.9033 20.478 60.766 20.3625 61.5667 20.1317C62.1123 19.9749 62.6275 19.7684 63.1159 19.5144V16.5654V16.563ZM56.1183 11.3066C56.2666 10.9968 56.4452 10.7355 56.6554 10.5205C56.8656 10.3054 57.1038 10.145 57.3711 10.0381C57.6384 9.93117 57.9324 9.87771 58.2544 9.87771C58.5764 9.87771 58.8826 9.93603 59.1499 10.0515C59.4172 10.1669 59.6432 10.3346 59.8292 10.5533C60.0138 10.772 60.1584 11.0345 60.2617 11.3394C60.365 11.6444 60.4197 11.9871 60.4282 12.3674H55.7854C55.8595 11.9713 55.9701 11.6177 56.1183 11.3091V11.3066Z" fill="black"/>
<path d="M52.1026 16.947C51.7976 17.1864 51.4877 17.3638 51.1706 17.4792C50.8535 17.5946 50.5181 17.653 50.1645 17.653C49.6214 17.653 49.2095 17.5023 48.93 17.201C48.6506 16.8996 48.5108 16.4391 48.5108 15.8206V10.1742H52.0272V7.57396H48.5108V4.23131L45.2046 4.5533V6.59219L47.2314 7.57396H43.4209V10.1742H45.2034V16.1171C45.2034 17.5861 45.5582 18.6797 46.2678 19.3978C46.9774 20.1159 48.0017 20.4756 49.3383 20.4756C49.9082 20.4756 50.4695 20.4027 51.0224 20.2593C51.4075 20.1584 51.7672 20.0199 52.1014 19.8449V16.947H52.1026Z" fill="black"/>
</g>
<path d="M8.25955 11.2686C8.56213 11.2307 8.81798 11.0265 8.92212 10.7398L12.3041 1.43158C12.4966 0.901684 12.1041 0.341553 11.5404 0.341553H4.39956C4.05218 0.341553 3.74322 0.562385 3.63076 0.89106L0.134517 11.1094C-0.0599727 11.6778 0.408343 12.2535 1.00445 12.1787L8.25955 11.2686Z" fill="black"/>
<path d="M1.00442 12.5044C0.40832 12.4296 -0.0599802 13.0052 0.134506 13.5737L3.63076 23.792C3.74322 24.1207 4.05218 24.3416 4.39956 24.3416H11.5405C12.1043 24.3416 12.4967 23.7815 12.3043 23.2516L8.92377 13.9434C8.81965 13.6567 8.56376 13.4525 8.26114 13.4145L1.00442 12.5044Z" fill="black"/>
<path d="M19.4276 11.2686C19.7302 11.2307 19.9861 11.0265 20.0902 10.7398L23.4721 1.43158C23.6647 0.901684 23.2722 0.341553 22.7084 0.341553H15.5676C15.2203 0.341553 14.9113 0.562385 14.7988 0.89106L11.3026 11.1094C11.1081 11.6778 11.5764 12.2535 12.1725 12.1787L19.4276 11.2686Z" fill="black"/>
<path d="M12.1725 12.5044C11.5764 12.4296 11.1081 13.0052 11.3026 13.5737L14.7988 23.792C14.9113 24.1207 15.2203 24.3416 15.5676 24.3416H22.7086C23.2723 24.3416 23.6648 23.7815 23.4724 23.2516L20.0918 13.9434C19.9877 13.6567 19.7318 13.4525 19.4292 13.4145L12.1725 12.5044Z" fill="black"/>
<defs>
<clipPath id="clip0_2341_191">
<rect width="36.491" height="16.2455" fill="white" transform="translate(27.1182 4.23133)"/>
</clipPath>
</defs>
</svg>
